<svg width="512" height="512" viewBox="0 0 512 512" fill="none" xmlns="http://www.w3.org/2000/svg" role="img" aria-labelledby="title desc">
  <title id="title">Rio Fit Club motion crest</title>
  <desc id="desc">A kinetic Rio Fit Club monogram built from a wave, hill, and track path.</desc>
  <rect width="512" height="512" rx="104" fill="#07100A"/>
  <path d="M82 322C126 246 190 211 260 211C322 211 370 239 420 296" stroke="#19F5A0" stroke-width="30" stroke-linecap="round"/>
  <path d="M92 261C133 185 199 146 282 151C342 154 391 182 431 231" stroke="#18D4E7" stroke-width="22" stroke-linecap="round"/>
  <path d="M144 366C192 323 236 306 285 313C335 320 373 347 410 389" stroke="#FF6A4D" stroke-width="22" stroke-linecap="round"/>
  <path d="M153 354V155H286C342 155 380 188 380 238C380 277 358 304 321 318L389 354" stroke="#F6FFF5" stroke-width="30" stroke-linecap="round" stroke-linejoin="round"/>
  <path d="M153 247H275C307 247 326 231 326 208C326 186 307 171 275 171H153" stroke="#07100A" stroke-width="38" stroke-linecap="round" stroke-linejoin="round"/>
  <path d="M153 247H273C309 247 331 229 331 202C331 176 309 159 274 159H153" stroke="#F6FFF5" stroke-width="30" stroke-linecap="round" stroke-linejoin="round"/>
</svg>
